<?xml version="1.0" encoding="UTF-8"?>
<svg version="1.1" xmlns="http://www.w3.org/2000/svg" width="500" height="500">
<path d="M0 0 C165 0 330 0 500 0 C500 165 500 330 500 500 C335 500 170 500 0 500 C0 335 0 170 0 0 Z " fill="#FEFEFE" transform="translate(0,0)"/>
<path d="M0 0 C2.3125 2.5625 2.3125 2.5625 3.5625 4.21875 C7.91536966 9.61252328 13.53903761 13.58065004 19.53125 16.95703125 C20.0159375 17.30121094 20.500625 17.64539063 21 18 C21 18.66 21 19.32 21 20 C21.86625 20.268125 22.7325 20.53625 23.625 20.8125 C26.93328198 21.97652514 29.86542698 23.43271349 33 25 C36.31563149 26.37902391 39.65376028 27.69721497 43 29 C43 29.66 43 30.32 43 31 C43.99797607 31.01401855 43.99797607 31.01401855 45.01611328 31.02832031 C48.05314019 31.08226019 51.08866579 31.16586062 54.125 31.25 C55.69507813 31.27126953 55.69507813 31.27126953 57.296875 31.29296875 C63.4523596 31.48776257 67.34897372 31.82170098 72 36 C74.10827055 39.16240582 74.33817465 40.50657469 74.625 44.1875 C74.73714844 45.53908203 74.73714844 45.53908203 74.8515625 46.91796875 C74.90054688 47.60503906 74.94953125 48.29210937 75 49 C69.53521703 51.67394461 64.78549917 52.62858412 58.75 53.125 C57.47842041 53.24174072 57.47842041 53.24174072 56.18115234 53.36083984 C54.51471546 53.51314687 52.84788954 53.66127025 51.18066406 53.8046875 C49.46943299 53.95795495 47.76118544 54.14458313 46.0546875 54.34375 C36.42836202 55.45805134 26.67469571 55.0875721 17 55 C17 55.99 17 56.98 17 58 C15.625 59.6875 15.625 59.6875 14 61 C13.34 61 12.68 61 12 61 C12.33 59.02 12.66 57.04 13 55 C12.07779663 55.01571045 12.07779663 55.01571045 11.13696289 55.03173828 C-2.9744304 55.23604508 -16.98062629 54.91963243 -31.0625 54.0625 C-31.80144501 54.01893372 -32.54039001 53.97536743 -33.30172729 53.93048096 C-35.40081682 53.80488566 -37.49925872 53.67178324 -39.59765625 53.53515625 C-40.80945557 53.456604 -42.02125488 53.37805176 -43.26977539 53.29711914 C-46 53 -46 53 -47 52 C-47.51655315 46.05363234 -46.87428712 40.45457867 -45.5703125 34.66015625 C-44.71249641 30.658973 -44.15361128 26.61446296 -43.5625 22.56640625 C-43 20 -43 20 -41 17 C-40.66858989 14.48715626 -40.55975267 12.00374268 -40.44140625 9.47265625 C-39.91679082 6.5338813 -39.07851481 5.12685236 -37 3 C-33.5625 2.4375 -33.5625 2.4375 -30 3 C-28.66666667 4.66666667 -27.33333333 6.33333333 -26 8 C-20.25233996 8.97601774 -16.67511357 7.07518581 -12 4 C-4.03218506 -1.06110133 -4.03218506 -1.06110133 0 0 Z " fill="#282826" transform="translate(307,141)"/>
<path d="M0 0 C40.92 0 81.84 0 124 0 C124 4.62 124 9.24 124 14 C83.08 14 42.16 14 0 14 C0 9.38 0 4.76 0 0 Z " fill="#080808" transform="translate(120,281)"/>
<path d="M0 0 C40.92 0 81.84 0 124 0 C124 4.29 124 8.58 124 13 C83.08 13 42.16 13 0 13 C0 8.71 0 4.42 0 0 Z " fill="#010101" transform="translate(260,203)"/>
<path d="M0 0 C2.83828456 1.33044589 4.14267939 3.46107251 6 5.9375 C6.66 6.2675 7.32 6.5975 8 6.9375 C8 8.2575 8 9.5775 8 10.9375 C9.32 10.9375 10.64 10.9375 12 10.9375 C12 11.5975 12 12.2575 12 12.9375 C14.475 13.9275 14.475 13.9275 17 14.9375 C17 15.5975 17 16.2575 17 16.9375 C17.721875 17.205625 18.44375 17.47375 19.1875 17.75 C22.01482972 18.94376144 24.50078372 20.15234551 27 21.9375 C27 22.9275 27 23.9175 27 24.9375 C27.969375 24.855 28.93875 24.7725 29.9375 24.6875 C34.69789607 24.6875 39.04369904 26.32682482 43 28.9375 C44.09765625 30.8828125 44.09765625 30.8828125 45 32.9375 C45.84296552 34.00525633 46.71758055 35.04894962 47.625 36.0625 C50 38.9375 50 38.9375 50 40.9375 C42.67716367 42.76727979 34.89041657 42.27945265 27.39257812 42.3425293 C25.47833108 42.36401772 23.56417982 42.39801066 21.65039062 42.44506836 C9.63109468 42.73723291 0.47768264 42.43966716 -10 35.9375 C-11.02528809 35.32092529 -11.02528809 35.32092529 -12.07128906 34.69189453 C-13.84093249 33.56720841 -15.51264773 32.42485227 -17 30.9375 C-17.5625 27.875 -17.5625 27.875 -17 23.9375 C-12.95185178 18.4358943 -7.20500556 14.40423537 -1.6875 10.48046875 C-1.130625 9.97128906 -0.57375 9.46210938 0 8.9375 C0 7.9475 0 6.9575 0 5.9375 C-2.31 5.2775 -4.62 4.6175 -7 3.9375 C-5.48769853 0.91289706 -3.37187713 -0.10537116 0 0 Z " fill="#FCFCFC" transform="translate(305,142.0625)"/>
<path d="M0 0 C7 0 7 0 8.86450195 1.54467773 C9.31784912 2.25052002 9.77119629 2.9563623 10.23828125 3.68359375 C11.00301758 4.82731445 11.00301758 4.82731445 11.78320312 5.99414062 C12.28787109 6.80044922 12.79253906 7.60675781 13.3125 8.4375 C14.34698524 10.02167482 15.38459414 11.60381561 16.42578125 13.18359375 C17.09734253 14.24404907 17.09734253 14.24404907 17.7824707 15.32592773 C18.91062404 17.14710763 18.91062404 17.14710763 21 18 C21.24363281 17.30519531 21.48726562 16.61039063 21.73828125 15.89453125 C23.21599771 12.50447585 25.04775373 9.70376884 27.1875 6.6875 C27.92355469 5.61886719 28.65960938 4.55023438 29.41796875 3.44921875 C32 1 32 1 39 1 C39 12.55 39 24.1 39 36 C36.36 36 33.72 36 31 36 C30.505 26.595 30.505 26.595 30 17 C28.989375 18.65 27.97875 20.3 26.9375 22 C23.52145818 26.80445318 23.52145818 26.80445318 19.5 28.3125 C13.66844681 26.12566756 11.9664542 21.32750959 9 16 C8.67 22.6 8.34 29.2 8 36 C5.36 36 2.72 36 0 36 C0 24.12 0 12.24 0 0 Z " fill="#070707" transform="translate(170,220)"/>
<path d="M0 0 C2.97 -0.103125 5.94 -0.20625 9 -0.3125 C9.91910156 -0.35802002 10.83820313 -0.40354004 11.78515625 -0.45043945 C18.01341656 -0.5539322 22.23075757 0.92575325 27 5 C28.96767225 8.93534451 28.4635902 13.71024538 28 18 C26.125 21.1875 26.125 21.1875 24 23 C23.34 23 22.68 23 22 23 C22.5053125 23.85464844 23.010625 24.70929688 23.53125 25.58984375 C24.1809375 26.69457031 24.830625 27.79929688 25.5 28.9375 C26.47453125 30.59072266 26.47453125 30.59072266 27.46875 32.27734375 C29 35 29 35 29 36 C25.81617009 36.63676598 23.15150188 36.87455471 20 36 C18.08427348 33.56298735 16.81018912 31.0579106 15.41796875 28.29296875 C14.11441958 25.63779932 14.11441958 25.63779932 10.625 24.875 C9.75875 24.91625 8.8925 24.9575 8 25 C8 28.63 8 32.26 8 36 C5.36 36 2.72 36 0 36 C0 24.12 0 12.24 0 0 Z " fill="#0B0B0B" transform="translate(97,220)"/>
<path d="M0 0 C3.58395685 0.11004161 7.16687917 0.24063297 10.75 0.375 C12.27367187 0.42140625 12.27367187 0.42140625 13.828125 0.46875 C14.8078125 0.50742188 15.7875 0.54609375 16.796875 0.5859375 C17.69760742 0.6173584 18.59833984 0.6487793 19.52636719 0.68115234 C22.08822875 1.01137256 23.78127437 1.70951673 26 3 C26 3.66 26 4.32 26 5 C26.99 5.495 26.99 5.495 28 6 C28.4140625 8.06640625 28.4140625 8.06640625 28.625 10.5625 C28.73714844 11.80193359 28.73714844 11.80193359 28.8515625 13.06640625 C28.90054688 13.70449219 28.94953125 14.34257812 29 15 C20.04249651 20.31226634 5.12850934 19.61185189 -5 20 C-5.92570801 20.03931641 -6.85141602 20.07863281 -7.80517578 20.11914062 C-10.89089901 20.23601283 -13.97526894 20.31048056 -17.0625 20.375 C-18.05056641 20.41318848 -19.03863281 20.45137695 -20.05664062 20.49072266 C-27.94140957 20.58111956 -27.94140957 20.58111956 -31.43359375 17.7265625 C-32.70396484 16.37691406 -32.70396484 16.37691406 -34 15 C-35.33024806 13.66358851 -36.66303423 12.32969097 -38 11 C-36.15269287 10.96241577 -36.15269287 10.96241577 -34.26806641 10.92407227 C-29.70952507 10.83007388 -25.15113882 10.72983485 -20.59277344 10.62768555 C-18.61787538 10.58430797 -16.64293913 10.542635 -14.66796875 10.50268555 C-11.8332161 10.44505127 -8.99865622 10.3813373 -6.1640625 10.31640625 C-5.27756012 10.29969376 -4.39105774 10.28298126 -3.47769165 10.26576233 C0.89925155 10.28914789 0.89925155 10.28914789 5 9 C4.360625 7.88625 3.72125 6.7725 3.0625 5.625 C1.99473894 3.76502913 0.95928532 1.91857063 0 0 Z " fill="#F2F2F2" transform="translate(351,174)"/>
<path d="M0 0 C3.01125 -0.061875 6.0225 -0.12375 9.125 -0.1875 C10.06230957 -0.21481201 10.99961914 -0.24212402 11.96533203 -0.27026367 C17.07376811 -0.32085841 20.58715956 0.13165372 25 3 C27.92669196 6.41447395 28.53817141 9.51223431 28.3515625 14.0078125 C27.59081826 18.31869652 25.07881573 21.01925843 21.9375 23.875 C17.37169703 25.62360539 12.83226022 25.22849567 8 25 C8 28.3 8 31.6 8 35 C5.36 35 2.72 35 0 35 C0 23.45 0 11.9 0 0 Z " fill="#040404" transform="translate(53,221)"/>
<path d="M0 0 C2.05078125 0.03255208 4.1015625 0.06510417 6.15234375 0.09765625 C6.15234375 4.71765625 6.15234375 9.33765625 6.15234375 14.09765625 C8.79234375 13.76765625 11.43234375 13.43765625 14.15234375 13.09765625 C14.35730469 12.39898437 14.56226563 11.7003125 14.7734375 10.98046875 C15.04285156 10.07039063 15.31226563 9.1603125 15.58984375 8.22265625 C15.85667969 7.31773437 16.12351562 6.4128125 16.3984375 5.48046875 C17.15234375 3.09765625 17.15234375 3.09765625 18.15234375 1.09765625 C21.12234375 1.09765625 24.09234375 1.09765625 27.15234375 1.09765625 C26.17450836 3.72315921 25.19513745 6.3480713 24.21484375 8.97265625 C23.93705078 9.71902344 23.65925781 10.46539062 23.37304688 11.234375 C21.265625 16.87109375 21.265625 16.87109375 20.15234375 19.09765625 C21.39695688 21.66338355 22.68876546 24.11971613 24.08984375 26.59765625 C28.15234375 33.85454273 28.15234375 33.85454273 28.15234375 36.09765625 C25.18234375 36.09765625 22.21234375 36.09765625 19.15234375 36.09765625 C18.71664063 35.17082031 18.2809375 34.24398437 17.83203125 33.2890625 C17.23161867 32.0788559 16.62999206 30.86925108 16.02734375 29.66015625 C15.74375 29.04849609 15.46015625 28.43683594 15.16796875 27.80664062 C14.18889655 25.76881808 14.18889655 25.76881808 12.15234375 23.09765625 C10.17234375 22.76765625 8.19234375 22.43765625 6.15234375 22.09765625 C6.15234375 26.71765625 6.15234375 31.33765625 6.15234375 36.09765625 C3.18234375 36.09765625 0.21234375 36.09765625 -2.84765625 36.09765625 C-2.87230723 31.13143276 -2.89049274 26.16524459 -2.90258789 21.19897461 C-2.90762815 19.50821309 -2.9144603 17.81745596 -2.9230957 16.12670898 C-2.93517482 13.70164918 -2.94088748 11.27664681 -2.9453125 8.8515625 C-2.95047379 8.09114151 -2.95563507 7.33072052 -2.96095276 6.54725647 C-2.96114863 4.73033055 -2.90962902 2.91352498 -2.84765625 1.09765625 C-1.84765625 0.09765625 -1.84765625 0.09765625 0 0 Z " fill="#111111" transform="translate(271.84765625,260.90234375)"/>
<path d="M0 0 C4.50263929 2.5603243 7.33107382 5.52786073 10.1875 9.8125 C10.1875 10.8025 10.1875 11.7925 10.1875 12.8125 C4.95673077 13.25578553 4.95673077 13.25578553 2.1875 12.8125 C1.40375 11.9875 0.62 11.1625 -0.1875 10.3125 C-3.14658937 7.49431965 -3.94384891 7.3596672 -7.875 7.1875 C-11.37335111 7.39083188 -12.5530589 7.62100776 -15.4375 9.75 C-17.30237035 13.90357487 -17.72687353 17.33773395 -16.8125 21.8125 C-14.82022296 24.86317422 -13.47567126 26.40676669 -9.875 27.28515625 C-5.69077546 27.59421829 -4.19678135 27.13137176 -0.875 24.375 C0.1459375 23.1065625 0.1459375 23.1065625 1.1875 21.8125 C2.1875 20.8125 2.1875 20.8125 4.03515625 20.71484375 C6.0859375 20.74739583 8.13671875 20.77994792 10.1875 20.8125 C9.86643374 26.11009331 6.96393353 29.36778022 3.1875 32.8125 C-1.66542989 35.59844123 -6.26067496 36.75546265 -11.8125 35.8125 C-17.6986085 33.88316443 -21.33165693 30.87554447 -24.8125 25.8125 C-26.59173088 20.34853937 -26.94353919 13.87087054 -24.94140625 8.45703125 C-19.31304089 -1.37876788 -10.48749464 -3.26659669 0 0 Z " fill="#0A0A0A" transform="translate(367.8125,262.1875)"/>
<path d="M0 0 C2.64 0 5.28 0 8 0 C8 4.29 8 8.58 8 13 C11.37346335 13.13956727 11.37346335 13.13956727 15 12 C16.85618327 9.53449213 17.8809981 6.858493 19 4 C19.65461134 2.66070682 20.31788934 1.32549888 21 0 C23.64 0 26.28 0 29 0 C28.38452845 3.58383952 27.40793378 6.71348105 26 10.0625 C23.45213109 15.34987917 23.45213109 15.34987917 23.62084961 20.92285156 C24.13143921 21.89689941 24.13143921 21.89689941 24.65234375 22.890625 C25.01650391 23.59960938 25.38066406 24.30859375 25.75585938 25.0390625 C26.34077148 26.13347656 26.34077148 26.13347656 26.9375 27.25 C27.32357422 27.99507813 27.70964844 28.74015625 28.10742188 29.5078125 C29.06090166 31.34414394 30.02905677 33.17284207 31 35 C27.7 35 24.4 35 21 35 C19.99515796 33.04414675 18.99626195 31.08523763 18 29.125 C17.443125 28.03445313 16.88625 26.94390625 16.3125 25.8203125 C15 23 15 23 15 21 C12.69 21 10.38 21 8 21 C8 25.62 8 30.24 8 35 C5.36 35 2.72 35 0 35 C0 23.45 0 11.9 0 0 Z " fill="#050505" transform="translate(395,262)"/>
<path d="M0 0 C3.23663795 2.03445814 4.98387023 4.22695747 7.1875 7.375 C7.1875 8.695 7.1875 10.015 7.1875 11.375 C4.5475 11.375 1.9075 11.375 -0.8125 11.375 C-1.4725 10.055 -2.1325 8.735 -2.8125 7.375 C-5.4525 7.375 -8.0925 7.375 -10.8125 7.375 C-10.85679825 9.81598214 -10.85679825 9.81598214 -9.8125 12.375 C-6.69786853 13.94106397 -6.69786853 13.94106397 -2.9375 14.9375 C3.72361587 16.91395019 3.72361587 16.91395019 6.10546875 19.28125 C7.80972049 22.57900787 7.82727078 25.79939222 7.1875 29.375 C5.4270325 32.37431499 3.96674074 33.90745555 1 35.6875 C-4.54450999 37.04282466 -9.62620603 37.35437939 -14.75 34.5625 C-17.8125 32.375 -17.8125 32.375 -19.8125 29.375 C-19.9375 26.6875 -19.9375 26.6875 -19.8125 24.375 C-17.1725 24.375 -14.5325 24.375 -11.8125 24.375 C-11.1525 25.695 -10.4925 27.015 -9.8125 28.375 C-7.5025 28.375 -5.1925 28.375 -2.8125 28.375 C-2.4825 26.725 -2.1525 25.075 -1.8125 23.375 C-2.62074219 23.13265625 -3.42898438 22.8903125 -4.26171875 22.640625 C-15.06408684 19.25266878 -15.06408684 19.25266878 -18.8125 15.375 C-20.42097182 12.15805636 -20.42559149 8.85362778 -19.8125 5.375 C-14.3121868 -1.42801896 -8.26612083 -1.83691574 0 0 Z " fill="#0C0C0C" transform="translate(460.8125,261.625)"/>
<path d="M0 0 C2.86370238 1.16096043 3.10540591 2.19811295 4.3125 4.9375 C3.40886719 5.61296875 2.50523437 6.2884375 1.57421875 6.984375 C0.38259546 7.88512961 -0.80879879 8.78618729 -2 9.6875 C-2.59490234 10.1309375 -3.18980469 10.574375 -3.80273438 11.03125 C-9.73933215 15.54165259 -9.73933215 15.54165259 -12.25 22.375 C-12.00578399 26.11377756 -12.00578399 26.11377756 -9.125 28.625 C-5.81249038 31.01253677 -2.27686554 32.99924261 1.3125 34.9375 C1.3125 35.2675 1.3125 35.5975 1.3125 35.9375 C-19.16322816 36.19963592 -19.16322816 36.19963592 -23.6875 33.9375 C-25.39452735 33.86753986 -27.10418003 33.85309846 -28.8125 33.875 C-29.72257812 33.88402344 -30.63265625 33.89304688 -31.5703125 33.90234375 C-32.26898438 33.91394531 -32.96765625 33.92554688 -33.6875 33.9375 C-34.90994075 29.90861077 -34.06534175 27.91793171 -32.6875 23.9375 C-32.24510646 21.2735215 -31.96561017 18.62589835 -31.6875 15.9375 C-30.9140625 15.77894531 -30.140625 15.62039062 -29.34375 15.45703125 C-19.85971465 13.33251343 -13.64299738 10.74125519 -7.6875 2.9375 C-4.90631729 0.79812869 -3.52541085 -0.0819863 0 0 Z " fill="#F8F8F8" transform="translate(297.6875,147.0625)"/>
<path d="M0 0 C7.59 0 15.18 0 23 0 C23 1.98 23 3.96 23 6 C18.05 6 13.1 6 8 6 C8 8.64 8 11.28 8 14 C12.62 14 17.24 14 22 14 C22 15.98 22 17.96 22 20 C17.38 20 12.76 20 8 20 C8 22.64 8 25.28 8 28 C13.28 28 18.56 28 24 28 C24 30.31 24 32.62 24 35 C16.08 35 8.16 35 0 35 C0 23.45 0 11.9 0 0 Z " fill="#050505" transform="translate(228,221)"/>
<path d="M0 0 C4.94437053 0.238662 9.8881104 0.48726809 14.83154297 0.74462891 C16.5091433 0.8306184 18.18687911 0.91400968 19.86474609 0.99462891 C44.02445847 2.16016595 44.02445847 2.16016595 51.5625 7 C52.38878906 7.515625 53.21507812 8.03125 54.06640625 8.5625 C56 10 56 10 57 12 C12.30916566 12.5261078 12.30916566 12.5261078 -1 9 C-1.125 2.25 -1.125 2.25 0 0 Z " fill="#F6F6F6" transform="translate(263,182)"/>
<path d="M0 0 C2.83828456 1.33044589 4.14267939 3.46107251 6 5.9375 C6.66 6.2675 7.32 6.5975 8 6.9375 C8 8.2575 8 9.5775 8 10.9375 C9.32 10.9375 10.64 10.9375 12 10.9375 C12 11.5975 12 12.2575 12 12.9375 C13.65 13.5975 15.3 14.2575 17 14.9375 C17 15.5975 17 16.2575 17 16.9375 C17.721875 17.205625 18.44375 17.47375 19.1875 17.75 C22.01482972 18.94376144 24.50078372 20.15234551 27 21.9375 C27 22.9275 27 23.9175 27 24.9375 C27.969375 24.855 28.93875 24.7725 29.9375 24.6875 C34.81128713 24.64755093 38.73516351 26.77123385 43 28.9375 C43 29.9275 43 30.9175 43 31.9375 C42.01 31.9375 41.02 31.9375 40 31.9375 C40 33.9175 40 35.8975 40 37.9375 C38 35.9375 38 35.9375 37 33.9375 C35.21473121 33.43056891 35.21473121 33.43056891 33.0625 33.125 C27.53353587 32.03165179 22.91387346 29.62525542 18 26.9375 C18 24.6275 18 22.3175 18 19.9375 C17.67 20.5975 17.34 21.2575 17 21.9375 C15.68 21.6075 14.36 21.2775 13 20.9375 C13.33 19.2875 13.66 17.6375 14 15.9375 C13.34 15.9375 12.68 15.9375 12 15.9375 C11.67 16.9275 11.34 17.9175 11 18.9375 C6.25 20.0625 6.25 20.0625 4 18.9375 C4 18.2775 4 17.6175 4 16.9375 C2.68 16.6075 1.36 16.2775 0 15.9375 C0 15.2775 0 14.6175 0 13.9375 C-0.99 13.6075 -1.98 13.2775 -3 12.9375 C-2.2575 12.0403125 -2.2575 12.0403125 -1.5 11.125 C0.28276418 8.96720006 0.28276418 8.96720006 0 5.9375 C-2.31 5.2775 -4.62 4.6175 -7 3.9375 C-5.48769853 0.91289706 -3.37187713 -0.10537116 0 0 Z " fill="#F0F0F0" transform="translate(305,142.0625)"/>
<path d="M0 0 C3.5625 0.5625 3.5625 0.5625 5.5 3 C7.83150592 5.89671948 8.30792499 5.96991777 11.8125 6.375 C13.05 6.436875 14.2875 6.49875 15.5625 6.5625 C13.85461508 12.15194154 10.68149196 14.23197016 5.875 17.25 C1.47959704 18.99157476 -2.74683962 19.29366769 -7.4375 19.5625 C-7.4375 22.2025 -7.4375 24.8425 -7.4375 27.5625 C-8.0975 27.8925 -8.7575 28.2225 -9.4375 28.5625 C-9.49160687 26.79200311 -9.53034119 25.02103151 -9.5625 23.25 C-9.58570313 22.26386719 -9.60890625 21.27773437 -9.6328125 20.26171875 C-9.4375 17.5625 -9.4375 17.5625 -7.4375 14.5625 C-7.10608989 12.04965626 -6.99725267 9.56624268 -6.87890625 7.03515625 C-6.06354753 2.46770431 -4.56730684 0.74737748 0 0 Z " fill="#141412" transform="translate(273.4375,143.4375)"/>
<path d="M0 0 C2.64 0 5.28 0 8 0 C8 11.88 8 23.76 8 36 C5.36 36 2.72 36 0 36 C0 24.12 0 12.24 0 0 Z " fill="#0A0A0A" transform="translate(317,261)"/>
<path d="M0 0 C2.64 0 5.28 0 8 0 C8 11.88 8 23.76 8 36 C5.36 36 2.72 36 0 36 C0 24.12 0 12.24 0 0 Z " fill="#0C0C0C" transform="translate(143,220)"/>
<path d="M0 0 C2.3125 2.5625 2.3125 2.5625 3.5625 4.21875 C7.91536966 9.61252328 13.53903761 13.58065004 19.53125 16.95703125 C20.0159375 17.30121094 20.500625 17.64539063 21 18 C21 18.66 21 19.32 21 20 C21.86625 20.268125 22.7325 20.53625 23.625 20.8125 C26.93328198 21.97652514 29.86542698 23.43271349 33 25 C36.31563149 26.37902391 39.65376028 27.69721497 43 29 C43 29.66 43 30.32 43 31 C43.99797607 31.01401855 43.99797607 31.01401855 45.01611328 31.02832031 C48.05314019 31.08226019 51.08866579 31.16586062 54.125 31.25 C55.69507813 31.27126953 55.69507813 31.27126953 57.296875 31.29296875 C63.45905135 31.48797433 67.27776106 31.91501822 72 36 C71.67 36.99 71.34 37.98 71 39 C70.34 38.67 69.68 38.34 69 38 C69.495 37.01 69.495 37.01 70 36 C66.97230685 35.13888484 64.15733363 34.81769107 61.015625 34.68359375 C59.61376953 34.62075195 59.61376953 34.62075195 58.18359375 34.55664062 C56.73146484 34.49766602 56.73146484 34.49766602 55.25 34.4375 C53.77466797 34.37272461 53.77466797 34.37272461 52.26953125 34.30664062 C49.84648725 34.20077948 47.4233446 34.09869829 45 34 C45.66 34.763125 46.32 35.52625 47 36.3125 C49 39 49 39 49 42 C50.98 42 52.96 42 55 42 C55 42.33 55 42.66 55 43 C48.98914401 43.85478266 43.0981596 44.2008464 37.03125 44.31640625 C35.64987854 44.3475779 35.64987854 44.3475779 34.24060059 44.37937927 C31.32713575 44.44425118 28.41358839 44.50346682 25.5 44.5625 C23.51301263 44.60574467 21.52603331 44.64936076 19.5390625 44.69335938 C14.6927908 44.79986772 9.8464369 44.90130684 5 45 C4.67 44.34 4.34 43.68 4 43 C18.52 42.67 33.04 42.34 48 42 C42.75424723 34.61282588 42.75424723 34.61282588 39 31 C39.495 30.505 39.495 30.505 40 30 C38.43840941 29.51787786 36.87568072 29.03944127 35.3125 28.5625 C34.44238281 28.29566406 33.57226562 28.02882812 32.67578125 27.75390625 C30.12974079 27.03655471 27.5996577 26.482459 25 26 C25 25.01 25 24.02 25 23 C24.278125 22.731875 23.55625 22.46375 22.8125 22.1875 C18.5479645 20.38691834 15.1933624 18.34542727 12 15 C11.34 14.67 10.68 14.34 10 14 C10 13.34 10 12.68 10 12 C8.68 12.33 7.36 12.66 6 13 C5.67 12.01 5.34 11.02 5 10 C5.33 9.34 5.66 8.68 6 8 C5.401875 7.7525 4.80375 7.505 4.1875 7.25 C1.71352479 5.83629988 0.56629745 4.34944617 -1 2 C-3.38564077 2.57584432 -5.66682784 3.22227595 -8 4 C-6.68 4.66 -5.36 5.32 -4 6 C-4.33 6.99 -4.66 7.98 -5 9 C-5.99 8.34 -6.98 7.68 -8 7 C-11.76327304 7.32027856 -14.73007522 8.11350494 -18 10 C-18.33 9.34 -18.66 8.68 -19 8 C-17.33623562 7.0492775 -15.67180186 6.09970611 -14.00390625 5.15625 C-12.7068472 4.40784946 -11.42175716 3.63813979 -10.15234375 2.84375 C-3.87442396 -1.01958525 -3.87442396 -1.01958525 0 0 Z " fill="#6C6C6B" transform="translate(307,141)"/>
<path d="M0 0 C1.80411967 2.75924185 2.0127245 3.88972103 1.625 7.25 C1.41875 8.1575 1.2125 9.065 1 10 C4.3 10.33 7.6 10.66 11 11 C11.33 10.34 11.66 9.68 12 9 C12.33 9.66 12.66 10.32 13 11 C17.37661783 11.76782769 21.58036148 12.03195569 26.015625 11.953125 C27.07608032 11.93644775 27.07608032 11.93644775 28.15795898 11.91943359 C29.57712019 11.89016591 30.99606939 11.84657418 32.41430664 11.78759766 C36.75634006 11.68957384 38.7096152 12.25175776 42 15 C36.50045802 14.73887723 31.00122245 14.47222869 25.50219727 14.20043945 C23.63117756 14.10874667 21.76008299 14.01856844 19.88891602 13.92993164 C17.20047254 13.80231791 14.5123447 13.66927263 11.82421875 13.53515625 C10.98662521 13.49656998 10.14903168 13.4579837 9.28605652 13.41822815 C5.98990493 13.24946461 3.1471175 13.04903917 0 12 C-0.33 14.97 -0.66 17.94 -1 21 C18.33138344 22.80519718 37.59871686 23.55738518 57 24 C57 24.33 57 24.66 57 25 C42.22320487 25.9798268 27.70411384 26.05609882 12.9375 25.125 C11.82908249 25.05699188 11.82908249 25.05699188 10.69827271 24.98760986 C-1.79615069 24.20384931 -1.79615069 24.20384931 -3 23 C-3.68398586 15.12620924 -2.4894374 7.46831219 0 0 Z " fill="#4B4B49" transform="translate(263,170)"/>
<path d="M0 0 C3.58395685 0.11004161 7.16687917 0.24063297 10.75 0.375 C11.76578125 0.4059375 12.7815625 0.436875 13.828125 0.46875 C14.8078125 0.50742188 15.7875 0.54609375 16.796875 0.5859375 C17.69760742 0.6173584 18.59833984 0.6487793 19.52636719 0.68115234 C22.08822875 1.01137256 23.78127437 1.70951673 26 3 C25.67 3.99 25.34 4.98 25 6 C22.05078125 6.94921875 22.05078125 6.94921875 18.3125 7.6875 C16.48138672 8.06455078 16.48138672 8.06455078 14.61328125 8.44921875 C11.33347937 8.94916693 8.30915434 9.10674691 5 9 C1.125 2.25 1.125 2.25 0 0 Z " fill="#FAFAFA" transform="translate(351,174)"/>
<path d="M0 0 C2.83828456 1.33044589 4.14267939 3.46107251 6 5.9375 C6.66 6.2675 7.32 6.5975 8 6.9375 C8.59355614 9.58610427 8.74209269 12.22947322 9 14.9375 C8.34 14.9375 7.68 14.9375 7 14.9375 C7 16.2575 7 17.5775 7 18.9375 C6.01 18.9375 5.02 18.9375 4 18.9375 C4 18.2775 4 17.6175 4 16.9375 C2.68 16.6075 1.36 16.2775 0 15.9375 C0 15.2775 0 14.6175 0 13.9375 C-0.99 13.6075 -1.98 13.2775 -3 12.9375 C-2.2575 12.0403125 -2.2575 12.0403125 -1.5 11.125 C0.28276418 8.96720006 0.28276418 8.96720006 0 5.9375 C-2.31 5.2775 -4.62 4.6175 -7 3.9375 C-5.48769853 0.91289706 -3.37187713 -0.10537116 0 0 Z " fill="#F5F5F4" transform="translate(305,142.0625)"/>
<path d="M0 0 C1.423125 -0.061875 2.84625 -0.12375 4.3125 -0.1875 C5.51326172 -0.23970703 5.51326172 -0.23970703 6.73828125 -0.29296875 C9 0 9 0 10.7734375 1.3203125 C12.64006931 3.87652804 12.32635853 5.93222981 12 9 C10 11 10 11 7.6171875 11.1953125 C6.71226563 11.17210937 5.80734375 11.14890625 4.875 11.125 C2.461875 11.063125 2.461875 11.063125 0 11 C0 7.37 0 3.74 0 0 Z " fill="#EFEFEF" transform="translate(105,227)"/>
<path d="M0 0 C3 2 3 2 3.51171875 4.3828125 C3.56972656 5.28773438 3.62773437 6.19265625 3.6875 7.125 C3.78611328 8.49011719 3.78611328 8.49011719 3.88671875 9.8828125 C3.94279297 10.93082031 3.94279297 10.93082031 4 12 C-1.46490997 14.67400675 -6.21441654 15.62827897 -12.25 16.125 C-13.51505371 16.24174072 -13.51505371 16.24174072 -14.80566406 16.36083984 C-16.4676861 16.51335706 -18.13011906 16.66147556 -19.79296875 16.8046875 C-21.58274205 16.96307452 -23.37004448 17.14921276 -25.15625 17.34375 C-35.37787939 18.45211945 -45.8344416 18.659683 -56 17 C-55.67 16.34 -55.34 15.68 -55 15 C-54.13556274 15.01571045 -54.13556274 15.01571045 -53.25366211 15.03173828 C-42.02199626 15.2066967 -30.88403403 15.09925467 -19.6875 14.125 C-18.30389282 14.00729248 -18.30389282 14.00729248 -16.89233398 13.88720703 C-10.82243654 13.31383806 -4.96112167 12.27930294 1 11 C0.505 5.555 0.505 5.555 0 0 Z " fill="#4A4A48" transform="translate(378,178)"/>
<path d="M0 0 C1.423125 -0.061875 2.84625 -0.12375 4.3125 -0.1875 C5.51326172 -0.23970703 5.51326172 -0.23970703 6.73828125 -0.29296875 C9 0 9 0 10.76953125 1.35546875 C12 3 12 3 12.375 5.5 C11.92687984 8.48746775 11.36602774 9.1876123 9 11 C6.73828125 11.29296875 6.73828125 11.29296875 4.3125 11.1875 C2.889375 11.125625 1.46625 11.06375 0 11 C0 7.37 0 3.74 0 0 Z " fill="#F7F7F7" transform="translate(61,228)"/>
<path d="M0 0 C0.66 0 1.32 0 2 0 C2 0.66 2 1.32 2 2 C4.475 2.99 4.475 2.99 7 4 C7 4.66 7 5.32 7 6 C7.7425 6.2475 8.485 6.495 9.25 6.75 C12.20124062 8.09147301 13.84814974 9.60905526 16 12 C15.01 12 14.02 12 13 12 C12.67 12.66 12.34 13.32 12 14 C10.68 13.67 9.36 13.34 8 13 C8 11.68 8 10.36 8 9 C7.67 9.66 7.34 10.32 7 11 C5.68 10.67 4.36 10.34 3 10 C3.33 8.35 3.66 6.7 4 5 C3.34 5 2.68 5 2 5 C1.67 5.99 1.34 6.98 1 8 C-0.65 8.33 -2.3 8.66 -4 9 C-3.67 7.35 -3.34 5.7 -3 4 C-2.34 4 -1.68 4 -1 4 C-0.67 2.68 -0.34 1.36 0 0 Z " fill="#A1A1A1" transform="translate(315,153)"/>
<path d="M0 0 C0.99 0.33 1.98 0.66 3 1 C2.16872618 5.71788767 -0.78818947 7.69846271 -4.375 10.5625 C-5.55038337 11.52102771 -6.72489069 12.48063087 -7.8984375 13.44140625 C-8.42099121 13.86107666 -8.94354492 14.28074707 -9.48193359 14.71313477 C-13.3640041 18.00396681 -14.42081747 19.78735726 -15 25 C-15.99 25.33 -16.98 25.66 -18 26 C-18.39589539 22.76685436 -18.64693178 20.12779296 -16.98046875 17.22265625 C-13.04657318 12.44346081 -8.16208942 8.39665484 -3 5 C-2.34 5 -1.68 5 -1 5 C-0.67 3.35 -0.34 1.7 0 0 Z " fill="#333331" transform="translate(303,147)"/>
<path d="M0 0 C2.3125 0.9375 2.3125 0.9375 3.625 3 C3.9653125 3.9590625 3.9653125 3.9590625 4.3125 4.9375 C3.3225 5.2675 2.3325 5.5975 1.3125 5.9375 C0.3225 5.2775 -0.6675 4.6175 -1.6875 3.9375 C-2.27917969 4.49179688 -2.87085938 5.04609375 -3.48046875 5.6171875 C-4.27066406 6.34164062 -5.06085938 7.06609375 -5.875 7.8125 C-6.65230469 8.53179687 -7.42960937 9.25109375 -8.23046875 9.9921875 C-10.66439776 11.9192092 -12.76286646 12.95050111 -15.6875 13.9375 C-16.3475 13.2775 -17.0075 12.6175 -17.6875 11.9375 C-16.32625 11.1021875 -16.32625 11.1021875 -14.9375 10.25 C-11.80854668 8.02362937 -10.04927788 5.90876895 -7.6875 2.9375 C-4.90631729 0.79812869 -3.52541085 -0.0819863 0 0 Z " fill="#EAEAE9" transform="translate(297.6875,147.0625)"/>
<path d="M0 0 C2.83828456 1.33044589 4.14267939 3.46107251 6 5.9375 C6.66 6.2675 7.32 6.5975 8 6.9375 C7.34 8.9175 6.68 10.8975 6 12.9375 C4.68 12.9375 3.36 12.9375 2 12.9375 C2.33 10.2975 2.66 7.6575 3 4.9375 C2.01 5.2675 1.02 5.5975 0 5.9375 C-2.35188447 5.33956327 -4.68925595 4.67868205 -7 3.9375 C-5.48769853 0.91289706 -3.37187713 -0.10537116 0 0 Z " fill="#B6B6B6" transform="translate(305,142.0625)"/>
<path d="M0 0 C0.66 0.66 1.32 1.32 2 2 C6.37841198 2.75489862 10.57662018 3.03193433 15.01171875 2.953125 C15.71925293 2.94200684 16.42678711 2.93088867 17.15576172 2.91943359 C18.57573678 2.89017896 19.99550054 2.84660114 21.41455078 2.78759766 C25.75650021 2.68956384 27.70969563 3.25182493 31 6 C25.50045802 5.73887723 20.00122245 5.47222869 14.50219727 5.20043945 C12.63117756 5.10874667 10.76008299 5.01856844 8.88891602 4.92993164 C6.20047254 4.80231791 3.5123447 4.66927263 0.82421875 4.53515625 C-0.01337479 4.49656998 -0.85096832 4.4579837 -1.71394348 4.41822815 C-5.01009507 4.24946461 -7.8528825 4.04903917 -11 3 C-10.67 2.34 -10.34 1.68 -10 1 C-6.7 1.33 -3.4 1.66 0 2 C0 1.34 0 0.68 0 0 Z " fill="#8A8A89" transform="translate(274,179)"/>
<path d="M0 0 C4.23582327 -0.04938628 8.47149465 -0.08571263 12.70751953 -0.10986328 C14.14895547 -0.11992963 15.59037095 -0.1335838 17.03173828 -0.15087891 C19.10193934 -0.17510012 21.17187076 -0.18647641 23.2421875 -0.1953125 C25.11173096 -0.21102295 25.11173096 -0.21102295 27.01904297 -0.22705078 C30 0 30 0 32 2 C31.23333008 1.99476318 30.46666016 1.98952637 29.67675781 1.98413086 C26.20118022 1.96333636 22.72561573 1.95033191 19.25 1.9375 C18.0434375 1.92912109 16.836875 1.92074219 15.59375 1.91210938 C14.43359375 1.90888672 13.2734375 1.90566406 12.078125 1.90234375 C11.00981445 1.89710693 9.94150391 1.89187012 8.84082031 1.88647461 C6.37610765 1.98496992 4.34754533 2.28434536 2 3 C1.34 2.01 0.68 1.02 0 0 Z " fill="#DEDEDD" transform="translate(313,185)"/>
<path d="M0 0 C3 2 3 2 3.51171875 4.3828125 C3.56972656 5.28773438 3.62773437 6.19265625 3.6875 7.125 C3.78611328 8.49011719 3.78611328 8.49011719 3.88671875 9.8828125 C3.92410156 10.58148438 3.96148437 11.28015625 4 12 C-1.82478551 15.03901852 -6.48208608 15.3540919 -13 15 C-8.52456422 12.51132309 -4.00565267 11.92209391 1 11 C0.67 7.37 0.34 3.74 0 0 Z " fill="#373735" transform="translate(378,178)"/>
<path d="M0 0 C3.73884332 2.65654657 5.64978174 4.58110387 7 9 C3.7 9.33 0.4 9.66 -3 10 C-3.33 9.01 -3.66 8.02 -4 7 C-3.34 7 -2.68 7 -2 7 C-2 7.66 -2 8.32 -2 9 C-1.01 9 -0.02 9 1 9 C0.42547254 5.06924356 0.42547254 5.06924356 -2 2 C-1.34 1.34 -0.68 0.68 0 0 Z " fill="#E7E7E6" transform="translate(348,174)"/>
<path d="M0 0 C0.89847656 0.26425781 1.79695313 0.52851563 2.72265625 0.80078125 C4.9375 1.6875 4.9375 1.6875 5.9375 3.6875 C4.6175 3.6875 3.2975 3.6875 1.9375 3.6875 C1.9375 4.3475 1.9375 5.0075 1.9375 5.6875 C0.9475 5.6875 -0.0425 5.6875 -1.0625 5.6875 C-1.0625 4.3675 -1.0625 3.0475 -1.0625 1.6875 C-3.0425 2.3475 -5.0225 3.0075 -7.0625 3.6875 C-7.0625 2.3675 -7.0625 1.0475 -7.0625 -0.3125 C-4.27328018 -1.70710991 -2.94172897 -0.89310045 0 0 Z " fill="#A3A3A2" transform="translate(342.0625,168.3125)"/>
<path d="M0 0 C0.66 0 1.32 0 2 0 C2 1.65 2 3.3 2 5 C2.99 5.33 3.98 5.66 5 6 C5.33 5.01 5.66 4.02 6 3 C7.125 7.75 7.125 7.75 6 10 C5.236875 9.690625 4.47375 9.38125 3.6875 9.0625 C1.81210323 8.32106407 -0.08684652 7.63771783 -2 7 C-2 6.34 -2 5.68 -2 5 C-2.66 5 -3.32 5 -4 5 C-4 4.34 -4 3.68 -4 3 C-3.01 2.67 -2.02 2.34 -1 2 C-0.67 1.34 -0.34 0.68 0 0 Z " fill="#EDEDED" transform="translate(317,158)"/>
<path d="M0 0 C0.66 0 1.32 0 2 0 C2 0.66 2 1.32 2 2 C2.66 2.33 3.32 2.66 4 3 C4 3.99 4 4.98 4 6 C3.34 5.67 2.68 5.34 2 5 C1.67 5.99 1.34 6.98 1 8 C-0.65 8.33 -2.3 8.66 -4 9 C-3.67 7.35 -3.34 5.7 -3 4 C-2.34 4 -1.68 4 -1 4 C-0.67 2.68 -0.34 1.36 0 0 Z " fill="#AFAFAF" transform="translate(315,153)"/>
<path d="M0 0 C2.02557334 3.28777763 2.11944042 5.08213065 1.25 8.8125 C1.05148437 9.68261719 0.85296875 10.55273438 0.6484375 11.44921875 C-0.16719521 14.65770164 -1.03605685 17.83275822 -2 21 C-2.33 21 -2.66 21 -3 21 C-2.88553728 18.43663746 -2.75880499 15.87486555 -2.625 13.3125 C-2.5940625 12.59126953 -2.563125 11.87003906 -2.53125 11.12695312 C-2.30664413 7.02789606 -1.82259091 3.75631541 0 0 Z " fill="#363634" transform="translate(263,170)"/>
<path d="M0 0 C-0.41580844 2.41168893 -0.66417967 3.69216469 -2.5 5.375 C-4.63927399 7.69254683 -4.659511 9.93559899 -5 13 C-5.99 13.33 -6.98 13.66 -8 14 C-8.42244894 10.55000031 -8.62172957 7.99399975 -6.734375 4.9765625 C-2.55 0 -2.55 0 0 0 Z " fill="#494948" transform="translate(293,159)"/>
<path d="M0 0 C5.80165739 0.97458672 10.83982722 2.01253155 16 5 C16 5.66 16 6.32 16 7 C16.99 7.33 17.98 7.66 19 8 C16.625 8.625 16.625 8.625 14 9 C13.34 8.34 12.68 7.68 12 7 C12.33 6.67 12.66 6.34 13 6 C8.71 4.35 4.42 2.7 0 1 C0 0.67 0 0.34 0 0 Z " fill="#484847" transform="translate(334,165)"/>
<path d="M0 0 C1.65 0 3.3 0 5 0 C5 1.65 5 3.3 5 5 C2.75 5.6875 2.75 5.6875 0 6 C-2.3125 4.5625 -2.3125 4.5625 -4 3 C-2.68 3 -1.36 3 0 3 C0 2.01 0 1.02 0 0 Z " fill="#CCCCCB" transform="translate(327,164)"/>
<path d="M0 0 C0.99 0.33 1.98 0.66 3 1 C3 1.66 3 2.32 3 3 C4.3921875 3.3403125 4.3921875 3.3403125 5.8125 3.6875 C9.50719183 5.2088437 10.32482761 6.46352496 12 10 C10.35 9.67 8.7 9.34 7 9 C7 8.01 7 7.02 7 6 C5.8553125 5.5978125 5.8553125 5.5978125 4.6875 5.1875 C2.12619116 4.05575888 0.80307062 3.08776599 -1 1 C-0.67 0.67 -0.34 0.34 0 0 Z " fill="#696968" transform="translate(325,158)"/>
<path d="M0 0 C0.99 0.33 1.98 0.66 3 1 C2.67 1.99 2.34 2.98 2 4 C1.01 3.34 0.02 2.68 -1 2 C-4.76327304 2.32027856 -7.73007522 3.11350494 -11 5 C-11.33 4.34 -11.66 3.68 -12 3 C-4.726094 -1.70664506 -4.726094 -1.70664506 0 0 Z " fill="#484847" transform="translate(300,146)"/>
<path d="M0 0 C4.95 0 9.9 0 15 0 C13 2 13 2 9.625 2.0625 C8.42875 2.041875 7.2325 2.02125 6 2 C3.68963085 2.42854995 3.68963085 2.42854995 2 3 C1.34 2.01 0.68 1.02 0 0 Z " fill="#CCCCCB" transform="translate(313,185)"/>
<path d="M0 0 C3.3 0.33 6.6 0.66 10 1 C10 1.66 10 2.32 10 3 C6.37 3 2.74 3 -1 3 C-0.67 2.01 -0.34 1.02 0 0 Z " fill="#EDEDED" transform="translate(263,182)"/>
<path d="M0 0 C-0.99 0.495 -0.99 0.495 -2 1 C-2 1.66 -2 2.32 -2 3 C-3.98 3.33 -5.96 3.66 -8 4 C-8.66 3.01 -9.32 2.02 -10 1 C-3.375 -1.125 -3.375 -1.125 0 0 Z " fill="#DFDFDE" transform="translate(281,161)"/>
<path d="M0 0 C0.66 0 1.32 0 2 0 C2.6875 1.8125 2.6875 1.8125 3 4 C1.625 5.625 1.625 5.625 0 7 C-0.33 7.66 -0.66 8.32 -1 9 C-1.99 8.67 -2.98 8.34 -4 8 C-3.2884375 7.13375 -3.2884375 7.13375 -2.5625 6.25 C-1.0515133 4.07417916 -0.45963849 2.57397552 0 0 Z " fill="#E7E7E7" transform="translate(306,147)"/>
<path d="M0 0 C0.33 0.66 0.66 1.32 1 2 C1.99 2 2.98 2 4 2 C4 1.34 4 0.68 4 0 C5.32 0.66 6.64 1.32 8 2 C7.01 2 6.02 2 5 2 C5 3.98 5 5.96 5 8 C4.34 7.34 3.68 6.68 3 6 C2.46375 5.525625 1.9275 5.05125 1.375 4.5625 C0 3 0 3 0 0 Z " fill="#D8D8D7" transform="translate(340,172)"/>
<path d="M0 0 C0.66 0.99 1.32 1.98 2 3 C0.02 4.32 -1.96 5.64 -4 7 C-4.99 6.34 -5.98 5.68 -7 5 C-6.030625 4.360625 -5.06125 3.72125 -4.0625 3.0625 C-1.23963731 1.3034741 -1.23963731 1.3034741 0 0 Z " fill="#D8D8D8" transform="translate(287,154)"/>
<path d="M0 0 C0.99 0.33 1.98 0.66 3 1 C2.67 1.66 2.34 2.32 2 3 C1.34 3 0.68 3 0 3 C0 3.66 0 4.32 0 5 C-6.75 3.25 -6.75 3.25 -9 1 C-6.36 1.33 -3.72 1.66 -1 2 C-0.67 1.34 -0.34 0.68 0 0 Z " fill="#E7E7E7" transform="translate(332,167)"/>
<path d="M0 0 C-0.3125 1.875 -0.3125 1.875 -1 4 C-1.99 4.66 -2.98 5.32 -4 6 C-4.66 5.34 -5.32 4.68 -6 4 C-2.25 0 -2.25 0 0 0 Z " fill="#434341" transform="translate(293,159)"/>
</svg>
